<?xml version="1.0" encoding="UTF-8" standalone="no"?>
<svg width="2100px" height="2970px" version="1.1" xmlns="http://www.w3.org/2000/svg" xmlns:xlink="http://www.w3.org/1999/xlink" overflow="visible">
	<desc>Engraved by Verovio 2.1.0-dev-a6997ee</desc>
	<defs>
		<symbol id="E003" viewBox="0 0 1000 1000" overflow="inherit">
			<path transform="scale(1,-1)" d="M0 -0c49 0 97.5 -2.26367 135.5 4.73633c206 95 258.5 264.264 263.5 271.264c0 1 -14 7 -15 6c-88 -154 -251 -167 -321 -170c-1 0 -63 -1 -63 -1v-111z" />
		</symbol>
		<symbol id="E004" viewBox="0 0 1000 1000" overflow="inherit">
			<path transform="scale(1,-1)" d="M0 0c49 0 97.5 2.26367 135.5 -4.73633c206 -95 258.5 -264.264 263.5 -271.264c0 -1 -14 -7 -15 -6c-88 154 -251 167 -321 170c-1 0 -63 1 -63 1v111z" />
		</symbol>
		<symbol id="E050" viewBox="0 0 1000 1000" overflow="inherit">
			<path transform="scale(1,-1)" d="M441 -245c-23 -4 -48 -6 -76 -6c-59 0 -102 7 -130 20c-88 42 -150 93 -187 154c-26 44 -43 103 -48 176c-4 60 11 123 44 189c29 57 65 106 110 148s96 85 153 127c-3 16 -8 46 -13 92c-4 43 -5 73 -5 89c0 117 16 172 69 257c34 54 64 82 89 82c21 0 43 -30 69 -92 s39 -115 41 -159c2 -120 -19 -173 -67 -256c-13 -20 -63 -90 -98 -118c-13 -9 -25 -19 -37 -29l31 -181c8 1 18 2 28 2c58 0 102 -12 133 -35c59 -43 92 -104 98 -184c11 -135 -80 -229 -180 -270c8 -57 17 -110 25 -162c5 -31 6 -58 6 -80c0 -30 -5 -53 -14 -70 c-35 -64 -88 -99 -158 -103c-42 -3 -83 6 -124 26c-50 24 -77 59 -80 105c-2 34 5 63 20 87c18 28 45 42 79 44c51 4 99 -40 103 -87c4 -56 -30 -94 -105 -115c17 -24 51 -36 102 -36c62 0 116 43 140 85c9 16 13 41 13 74c0 20 -1 42 -5 67c-8 53 -18 106 -26 159zM461 939 c-95 0 -135 -175 -135 -286c0 -24 2 -48 5 -71c50 39 92 82 127 128c43 57 63 106 60 148c-4 54 -23 82 -57 81zM406 119l54 -326c80 27 116 88 109 184c-7 99 -62 146 -163 142zM382 117c-74 -2 -132 -50 -128 -127c2 -46 43 -99 75 -115c-3 -2 -7 -5 -10 -10 c-70 33 -116 88 -123 172c-5 73 42 135 88 170c23 17 49 29 78 36l-29 170c-21 -13 -52 -37 -92 -73c-50 -44 -86 -84 -109 -119c-49 -75 -71 -140 -67 -195c5 -68 35 -127 93 -176s125 -73 203 -73c25 0 50 3 75 9c-19 111 -36 221 -54 331z" />
		</symbol>
		<symbol id="E08B" viewBox="0 0 1000 1000" overflow="inherit">
			<path transform="scale(1,-1)" d="M188 200c-42 -22 -63 -69 -63 -141v-119c0 -39 7 -70 19 -94s26 -40 44 -48v402zM0 -0c0 127 80 220 186 246v72h32l-6 -72c33 0 71 0 101 -11c54 -20 102 -65 102 -135c0 -16 -4 -30 -13 -43s-20 -24 -32 -29l-20 -8l-23 -3c-22 2 -41 8 -55 21s-21 31 -26 51 c0 38 45 80 79 80c12 0 19 3 19 10c0 6 -6 12 -15 18c-19 13 -47 24 -79 24c-10 0 -20 -1 -32 -5v-431c15 -3 12 -4 30 -4c57 0 100 51 121 93l17 39c3 13 5 25 5 35h26c-6 -70 -28 -121 -66 -152s-82 -47 -133 -47v-68h-30v72c-57 10 -122 54 -153 109c-7 12 -13 26 -19 42 c-11 29 -16 61 -16 96z" />
		</symbol>
		<symbol id="E0A2" viewBox="0 0 1000 1000" overflow="inherit">
			<path transform="scale(1,-1)" d="M198 133c102 0 207 -45 207 -133c0 -92 -98 -133 -207 -133c-101 0 -198 46 -198 133c0 88 93 133 198 133zM293 -21c0 14 -3 29 -8 44c-7 20 -18 38 -33 54c-20 21 -43 31 -68 31l-20 -2c-15 -5 -27 -14 -36 -28c-4 -9 -6 -17 -8 -24s-3 -16 -3 -27c0 -15 3 -34 9 -57 s18 -41 34 -55c15 -15 36 -23 62 -23c4 0 10 1 18 2c19 5 32 15 40 30s13 34 13 55z" />
		</symbol>
		<symbol id="E0A3" viewBox="0 0 1000 1000" overflow="inherit">
			<path transform="scale(1,-1)" d="M98 -102zM200 138l41 -5c-2 0 -41 5 -41 5zM278 64c0 22 -17 39 -43 39c-12 0 -26 -3 -41 -10c-85 -43 -165 -94 -165 -156c5 -25 15 -32 49 -32c67 11 200 95 200 159zM0 -36c0 68 73 174 200 174c66 0 114 -39 114 -97c0 -84 -106 -173 -218 -173c-64 0 -96 32 -96 96z " />
		</symbol>
		<symbol id="E052" viewBox="0 0 1000 1000" overflow="inherit">
			<path transform="scale(1,-1)" d="M382 117c-74 -2 -132 -50 -128 -127c2 -46 43 -99 75 -115c-3 -2 -7 -5 -10 -10c-70 33 -116 88 -123 172c-5 73 42 135 88 170c23 17 49 29 78 36l-29 170c-21 -13 -52 -37 -92 -73c-50 -44 -86 -84 -109 -119c-49 -75 -71 -140 -67 -195c5 -68 35 -127 93 -176 s125 -73 203 -73c25 0 50 3 75 9c-19 111 -36 221 -54 331zM406 119l54 -326c80 27 116 88 109 184c-7 99 -62 146 -163 142zM461 939c-95 0 -135 -175 -135 -286c0 -24 2 -48 5 -71c50 39 92 82 127 128c43 57 63 106 60 148c-4 54 -23 82 -57 81zM441 -245 c-23 -4 -48 -6 -76 -6c-59 0 -102 7 -130 20c-88 42 -150 93 -187 154c-26 44 -43 103 -48 176c-4 60 11 123 44 189c29 57 65 106 110 148s96 85 153 127c-3 16 -8 46 -13 92c-4 43 -5 73 -5 89c0 117 16 172 69 257c34 54 64 82 89 82c21 0 43 -30 69 -92s39 -115 41 -159 c2 -120 -19 -173 -67 -256c-13 -20 -63 -90 -98 -118c-13 -9 -25 -19 -37 -29l31 -181c8 1 18 2 28 2c58 0 102 -12 133 -35c59 -43 92 -104 98 -184c11 -135 -80 -229 -180 -270c8 -57 17 -110 25 -162c5 -31 6 -58 6 -80c0 -30 -5 -53 -14 -70c-25 -46 -59 -77 -102 -92 c21 -1 85 -13 85 -60c0 -35 -22 -43 -31 -50c-6 -5 -8 -10 -8 -16s0 -11 4 -16c6 -11 9 -22 9 -34c0 -27 -18 -53 -46 -65c-11 -4 -27 -6 -41 -6c-34 0 -82 21 -90 58c-1 5 -2 8 -2 12c0 28 25 57 51 66c4 1 6 2 6 5c0 2 -1 3 -2 3c-11 13 -16 27 -16 41c0 21 11 40 30 51 h-5c-42 -3 -83 6 -124 26c-50 24 -77 59 -80 105c-2 34 5 63 20 87c18 28 45 42 79 44c51 4 99 -40 103 -87c4 -56 -30 -94 -105 -115c17 -24 51 -36 102 -36c62 0 116 43 140 85c9 16 13 41 13 74c0 20 -1 42 -5 67c-8 53 -18 106 -26 159zM315 -781c-3 -2 -6 -5 -7 -8 c-6 -8 -10 -19 -10 -30c0 -2 0 -4 1 -7c7 -32 34 -52 53 -52c20 0 37 20 37 36c0 5 -2 9 -4 14c-5 13 -14 24 -25 34c-6 5 -11 10 -17 14c-4 2 -9 6 -14 6c-6 0 -11 -3 -14 -7zM349 -685c0 -14 10 -25 18 -34c8 -8 16 -18 26 -25c5 -2 10 -4 13 -4c17 0 22 30 23 48 c0 9 -3 20 -9 26c-8 9 -23 14 -40 14c-15 -1 -29 -8 -31 -25z" />
		</symbol>
		<symbol id="E062" viewBox="0 0 1000 1000" overflow="inherit">
			<path transform="scale(1,-1)" d="M158 96c51 0 73 -14 88 -49l16 -39c0 -17 -2 -30 -7 -40c-3 -11 -10 -21 -19 -31c-17 -18 -49 -43 -84 -43c-55 0 -77 13 -112 44c-24 21 -35 55 -35 100c0 46 14 81 32 112c30 52 71 79 137 93l36 6l26 2c154 0 235 -68 274 -182c11 -32 18 -68 18 -107 c0 -103 -26 -182 -68 -250c-89 -145 -234 -230 -412 -288l-30 -5c-9 0 -14 3 -14 8c3 10 5 11 10 16c35 15 70 30 96 44l78 43c96 57 162 136 197 258c9 33 17 60 22 100c3 22 5 35 6 39c-7 69 -16 115 -23 140s-4 22 -16 40c-8 12 -19 23 -31 34c-24 21 -62 44 -118 44 c-48 0 -84 -8 -113 -28c-28 -19 -42 -44 -42 -73v-16c2 -5 3 -9 4 -11c24 22 52 39 84 39zM585 -118c0 32 23 58 57 58c18 0 33 -6 40 -18c9 -15 16 -18 16 -40c0 -9 -2 -16 -5 -21c-6 -19 -27 -37 -51 -37c-34 0 -57 26 -57 58zM642 177c31 0 56 -27 56 -58 c0 -30 -25 -58 -56 -58l-23 3c-19 7 -34 32 -34 55l3 23c9 20 28 35 54 35z" />
		</symbol>
	</defs>
	<style type="text/css">g.page-margin{font-family:Times;} g.tempo{font-weight:bold;} g.dir, g.dynam, g.mNum{font-style:italic;} g.label{font-weight:normal;}</style>
	<svg class="definition-scale" viewBox="0 0 21000 29700">
		<g class="page-margin" transform="translate(500, 500)">
			<g class="system" id="system-0000000185344181">
				<path d="M13 720 L13 6667" stroke="#000000" stroke-width="27" />
				<use xlink:href="#E003" x="-167" y="720" height="720px" width="720px" />
				<use xlink:href="#E004" x="-167" y="6667" height="720px" width="720px" />
				<rect x="-167" y="702" height="5983" width="90" />
				<g class="section boundaryStart" id="section-0000000792772471" />
				<g class="staff" id="staff-0000000119776557">
					<path d="M0 720 L7701 720" stroke="#000000" stroke-width="13" />
					<path d="M0 900 L7701 900" stroke="#000000" stroke-width="13" />
					<path d="M0 1080 L7701 1080" stroke="#000000" stroke-width="13" />
					<path d="M0 1260 L7701 1260" stroke="#000000" stroke-width="13" />
					<path d="M0 1440 L7701 1440" stroke="#000000" stroke-width="13" />
					<g class="clef" id="clef-0000001468392247">
						<use xlink:href="#E050" x="90" y="1260" height="720px" width="720px" />
					</g>
					<g class="meterSig" id="msig-0000001558165440">
						<use xlink:href="#E08B" x="861" y="1080" height="720px" width="720px" />
					</g>
					<g class="ledgerLines below">
						<path d="M6066 1620 L6446 1620" stroke="#000000" stroke-width="22" />
					</g>
					<g class="layer" id="layer-0000000611870328">
						<g class="note" id="note-0000000958848566">
							<use xlink:href="#E0A2" x="1431" y="1440" height="720px" width="720px" />
							<g class="dots" id="dots-0000001555084592">
								<ellipse cx="1811" cy="1350" rx="36" ry="36" />
							</g>
							<g class="verse" id="verse-0000000589464397">
								<g class="syl" id="syl-0000000059351490">
									<title class="labelAttr">short</title>
									<text x="1341" y="2027" font-size="0px">
										<tspan class="text" id="text-0000002076701178">
											<tspan font-size="405px" class="text">AL</tspan>
										</tspan>
									</text>
								</g>
							</g>
						</g>
						<g class="note" id="note-0000000438282123">
							<use xlink:href="#E0A3" x="3471" y="1530" height="720px" width="720px" />
							<g class="stem">
								<rect x="3679" y="900" height="608" width="18" />
							</g>
							<g class="verse" id="verse-0000002007065721">
								<g class="syl" id="syl-0000001551703481">
									<title class="labelAttr">short</title>
									<text x="3381" y="2027" font-size="0px">
										<tspan class="text" id="text-0000000143716123">
											<tspan font-size="405px" class="text">LE</tspan>
										</tspan>
									</text>
								</g>
							</g>
						</g>
						<g class="note" id="note-0000000674610317">
							<use xlink:href="#E0A2" x="4521" y="1080" height="720px" width="720px" />
							<g class="verse" id="verse-0000000806061368">
								<g class="syl" id="syl-0000000395415068">
									<title class="labelAttr">long</title>
									<text x="4431" y="2027" font-size="0px">
										<tspan class="text" id="text-0000001078585354">
											<tspan font-size="405px" class="text">LU</tspan>
										</tspan>
									</text>
								</g>
							</g>
						</g>
						<g class="note" id="note-0000001205064230">
							<use xlink:href="#E0A2" x="6111" y="1620" height="720px" width="720px" />
							<g class="verse" id="verse-0000000395199612">
								<g class="syl" id="syl-0000000492685044">
									<title class="labelAttr">short</title>
									<text x="6021" y="2027" font-size="0px">
										<tspan class="text" id="text-0000000253767762">
											<tspan font-size="405px" class="text">IA.</tspan>
										</tspan>
									</text>
								</g>
							</g>
						</g>
					</g>
				</g>
				<g class="staff" id="staff-0000000171561103">
					<path d="M0 2340 L7701 2340" stroke="#000000" stroke-width="13" />
					<path d="M0 2520 L7701 2520" stroke="#000000" stroke-width="13" />
					<path d="M0 2700 L7701 2700" stroke="#000000" stroke-width="13" />
					<path d="M0 2880 L7701 2880" stroke="#000000" stroke-width="13" />
					<path d="M0 3060 L7701 3060" stroke="#000000" stroke-width="13" />
					<g class="clef" id="clef-0000000634137850">
						<use xlink:href="#E050" x="90" y="2880" height="720px" width="720px" />
					</g>
					<g class="meterSig" id="msig-0000002101404687">
						<use xlink:href="#E08B" x="861" y="2700" height="720px" width="720px" />
					</g>
					<g class="ledgerLines below">
						<path d="M1386 3240 L1766 3240" stroke="#000000" stroke-width="22" />
					</g>
					<g class="layer" id="layer-0000000432761640">
						<g class="note" id="note-0000000341069004">
							<use xlink:href="#E0A2" x="1431" y="3240" height="720px" width="720px" />
							<g class="dots" id="dots-0000001608824916">
								<ellipse cx="1811" cy="3150" rx="36" ry="36" />
							</g>
							<g class="verse" id="verse-0000000964333575">
								<g class="syl" id="syl-0000001094661578">
									<title class="labelAttr">short</title>
									<text x="1341" y="3647" font-size="0px">
										<tspan class="text" id="text-0000000973670471">
											<tspan font-size="405px" class="text">AL</tspan>
										</tspan>
									</text>
								</g>
							</g>
						</g>
						<g class="note" id="note-0000000363822441">
							<use xlink:href="#E0A3" x="3471" y="2790" height="720px" width="720px" />
							<g class="stem">
								<rect x="3679" y="2160" height="608" width="18" />
							</g>
							<g class="verse" id="verse-0000000566867145">
								<g class="syl" id="syl-0000001756104883">
									<title class="labelAttr">short</title>
									<text x="3381" y="3647" font-size="0px">
										<tspan class="text" id="text-0000000585660774">
											<tspan font-size="405px" class="text">LE</tspan>
										</tspan>
									</text>
								</g>
							</g>
						</g>
						<g class="note" id="note-0000000305175222">
							<use xlink:href="#E0A2" x="4521" y="2880" height="720px" width="720px" />
							<g class="verse" id="verse-0000001170955799">
								<g class="syl" id="syl-0000000883140588">
									<title class="labelAttr">long</title>
									<text x="4431" y="3647" font-size="0px">
										<tspan class="text" id="text-0000000424951779">
											<tspan font-size="405px" class="text">LU</tspan>
										</tspan>
									</text>
								</g>
							</g>
						</g>
						<g class="note" id="note-0000001782826127">
							<use xlink:href="#E0A2" x="6111" y="2880" height="720px" width="720px" />
							<g class="verse" id="verse-0000001841989154">
								<g class="syl" id="syl-0000001014416177">
									<title class="labelAttr">short</title>
									<text x="6021" y="3647" font-size="0px">
										<tspan class="text" id="text-0000001842177618">
											<tspan font-size="405px" class="text">IA.</tspan>
										</tspan>
									</text>
								</g>
							</g>
						</g>
					</g>
				</g>
				<g class="staff" id="staff-0000001771206684">
					<path d="M0 3966 L7701 3966" stroke="#000000" stroke-width="13" />
					<path d="M0 4146 L7701 4146" stroke="#000000" stroke-width="13" />
					<path d="M0 4326 L7701 4326" stroke="#000000" stroke-width="13" />
					<path d="M0 4506 L7701 4506" stroke="#000000" stroke-width="13" />
					<path d="M0 4686 L7701 4686" stroke="#000000" stroke-width="13" />
					<g class="clef" id="clef-0000000165509826">
						<use xlink:href="#E052" x="90" y="4506" height="720px" width="720px" />
					</g>
					<g class="meterSig" id="msig-0000001720772499">
						<use xlink:href="#E08B" x="861" y="4326" height="720px" width="720px" />
					</g>
					<g class="layer" id="layer-0000001452698300">
						<g class="note" id="note-0000001701759691">
							<use xlink:href="#E0A2" x="1431" y="3876" height="720px" width="720px" />
							<g class="dots" id="dots-0000001784816333">
								<ellipse cx="1811" cy="3876" rx="36" ry="36" />
							</g>
							<g class="verse" id="verse-0000001175426517">
								<g class="syl" id="syl-0000001596414424">
									<title class="labelAttr">short</title>
									<text x="1341" y="5178" font-size="0px">
										<tspan class="text" id="text-0000000228886361">
											<tspan font-size="405px" class="text">AL</tspan>
										</tspan>
									</text>
								</g>
							</g>
						</g>
						<g class="note" id="note-0000001981487886">
							<use xlink:href="#E0A3" x="3471" y="3966" height="720px" width="720px" />
							<g class="stem">
								<rect x="3471" y="3988" height="608" width="18" />
							</g>
							<g class="verse" id="verse-0000001991829492">
								<g class="syl" id="syl-0000001307471715">
									<title class="labelAttr">short</title>
									<text x="3381" y="5178" font-size="0px">
										<tspan class="text" id="text-0000001039068468">
											<tspan font-size="405px" class="text">LE</tspan>
										</tspan>
									</text>
								</g>
							</g>
						</g>
						<g class="note" id="note-0000000239545456">
							<use xlink:href="#E0A2" x="4521" y="4146" height="720px" width="720px" />
							<g class="verse" id="verse-0000001800156759">
								<g class="syl" id="syl-0000001292836230">
									<title class="labelAttr">long</title>
									<text x="4431" y="5178" font-size="0px">
										<tspan class="text" id="text-0000000411106560">
											<tspan font-size="405px" class="text">LU</tspan>
										</tspan>
									</text>
								</g>
							</g>
						</g>
						<g class="note" id="note-0000000085434751">
							<use xlink:href="#E0A2" x="6111" y="4056" height="720px" width="720px" />
							<g class="verse" id="verse-0000001633905234">
								<g class="syl" id="syl-0000001375440135">
									<title class="labelAttr">short</title>
									<text x="6021" y="5178" font-size="0px">
										<tspan class="text" id="text-0000001180096329">
											<tspan font-size="405px" class="text">IA.</tspan>
										</tspan>
									</text>
								</g>
							</g>
						</g>
					</g>
				</g>
				<g class="staff" id="staff-0000000460092057">
					<path d="M0 5947 L7701 5947" stroke="#000000" stroke-width="13" />
					<path d="M0 6127 L7701 6127" stroke="#000000" stroke-width="13" />
					<path d="M0 6307 L7701 6307" stroke="#000000" stroke-width="13" />
					<path d="M0 6487 L7701 6487" stroke="#000000" stroke-width="13" />
					<path d="M0 6667 L7701 6667" stroke="#000000" stroke-width="13" />
					<g class="clef" id="clef-0000000057811018">
						<use xlink:href="#E062" x="90" y="6127" height="720px" width="720px" />
					</g>
					<g class="meterSig" id="msig-0000002084832257">
						<use xlink:href="#E08B" x="861" y="6307" height="720px" width="720px" />
					</g>
					<g class="ledgerLines above">
						<path d="M1386 5767 L1766 5767" stroke="#000000" stroke-width="22" />
						<path d="M3426 5767 L3742 5767" stroke="#000000" stroke-width="22" />
						<path d="M4476 5767 L4856 5767" stroke="#000000" stroke-width="22" />
						<path d="M6066 5767 L6446 5767" stroke="#000000" stroke-width="22" />
						<path d="M1386 5587 L1766 5587" stroke="#000000" stroke-width="22" />
						<path d="M3426 5587 L3742 5587" stroke="#000000" stroke-width="22" />
						<path d="M4476 5587 L4856 5587" stroke="#000000" stroke-width="22" />
						<path d="M4476 5407 L4856 5407" stroke="#000000" stroke-width="22" />
					</g>
					<g class="layer" id="layer-0000001739262576">
						<g class="note" id="note-0000001746963475">
							<use xlink:href="#E0A2" x="1431" y="5587" height="720px" width="720px" />
							<g class="dots" id="dots-0000000101288071">
								<ellipse cx="1811" cy="5497" rx="36" ry="36" />
							</g>
							<g class="verse" id="verse-0000000068713293">
								<g class="syl" id="syl-0000000177439702">
									<title class="labelAttr">short</title>
									<text x="1341" y="7159" font-size="0px">
										<tspan class="text" id="text-0000002052138697">
											<tspan font-size="405px" class="text">AL</tspan>
										</tspan>
									</text>
								</g>
							</g>
						</g>
						<g class="note" id="note-0000001239669092">
							<use xlink:href="#E0A3" x="3471" y="5497" height="720px" width="720px" />
							<g class="stem">
								<rect x="3471" y="5519" height="788" width="18" />
							</g>
							<g class="verse" id="verse-0000001060580290">
								<g class="syl" id="syl-0000000329606828">
									<title class="labelAttr">short</title>
									<text x="3381" y="7159" font-size="0px">
										<tspan class="text" id="text-0000000875011572">
											<tspan font-size="405px" class="text">LE</tspan>
										</tspan>
									</text>
								</g>
							</g>
						</g>
						<g class="note" id="note-0000000755085797">
							<use xlink:href="#E0A2" x="4521" y="5407" height="720px" width="720px" />
							<g class="verse" id="verse-0000001344023005">
								<g class="syl" id="syl-0000000569705542">
									<title class="labelAttr">long</title>
									<text x="4431" y="7159" font-size="0px">
										<tspan class="text" id="text-0000000378808833">
											<tspan font-size="405px" class="text">LU</tspan>
										</tspan>
									</text>
								</g>
							</g>
						</g>
						<g class="note" id="note-0000000649237658">
							<use xlink:href="#E0A2" x="6111" y="5767" height="720px" width="720px" />
							<g class="verse" id="verse-0000000123981585">
								<g class="syl" id="syl-0000001554235351">
									<title class="labelAttr">short</title>
									<text x="6021" y="7159" font-size="0px">
										<tspan class="text" id="text-0000000098168434">
											<tspan font-size="405px" class="text">IA.</tspan>
										</tspan>
									</text>
								</g>
							</g>
						</g>
					</g>
				</g>
				<g class="boundaryEnd section-0000000792772471" id="bdend-0000001572660639" />
			</g>
			<g class="pgHead autogenerated" id="pghead-0000000593166295" />
			<g class="pgFoot autogenerated" id="pgfoot-0000001587887575">
				<g class="fig" id="fig-0000001737825060">
					<g class="svg" id="fig-0000002082678730" transform="translate(7750, 28099) scale(10, 10)">
						<g>
							<path fill="#00000" d="M 17.11278,49.26451 V 10.367554 h 12.696511 c 3.288815,7.336676 6.71267,14.610456 10.127281,21.888976 3.419998,-7.484684 6.255515,-14.204887 9.58887,-21.909915 2.436207,0.103726 4.316952,0.08453 6.484294,-0.05808 V 49.264423 H 50.274275 C 50.145222,38.35639 50.016136,27.448368 49.887066,16.540329 45.003488,27.315459 39.967448,38.433564 35.083854,49.208695 34.678996,49.343717 34.426583,49.135619 34.021726,49.270644 29.46588,39.330716 24.910049,29.390805 20.354201,19.450876 20.224341,29.388756 20.09461,39.326619 19.964815,49.264497 H 17.11278 Z M 36.754144,39.324695 C 32.721221,30.512695 28.6883,21.700679 24.655394,12.888662 22.530527,12.750737 22.656775,12.71031 20.714356,12.813974 v 0.966497 c 4.612938,9.99784 9.609439,20.748709 13.87298,30.081745 0.722248,-1.512523 1.444528,-3.025014 2.166808,-4.537521 z m 25.738417,9.939815 c 0,-12.965651 0,-25.931305 0,-38.896956 10.084388,0 20.168791,0 30.253178,0 0,0.960416 0,1.920849 0,2.881265 -6.482825,0 -12.965652,0 -19.448478,0 0,4.802097 0,9.604178 0,14.406277 5.52241,0 11.044819,0 16.567229,0 0,0.960415 0,1.920832 0,2.881248 -5.52241,0 -11.044819,0 -16.567229,0 0,5.282306 0,10.564611 0,15.846917 6.963035,0 13.926068,0 20.889103,0 0,0.960416 0,1.920832 0,2.881249 -10.564597,0 -21.129207,0 -31.693803,0 z m 4.321874,-2.160937 c 0,-11.765131 0,-23.530263 0,-35.295394 -0.720312,0 -1.440625,0 -2.160937,0 0,11.765131 0,23.530263 0,35.295394 0.720312,0 1.440625,0 2.160937,0 z m 32.41413,2.160937 c 0,-12.965651 0,-25.931305 0,-38.896956 2.401045,0 4.802095,0 7.203135,0 0,12.965651 0,25.931305 0,38.896956 -2.40104,0 -4.80209,0 -7.203135,0 z m 2.881265,-2.160937 c 0,-11.765131 0,-23.530263 0,-35.295394 -0.72031,0 -1.44064,0 -2.160953,0 0,11.765131 0,23.530263 0,35.295394 0.720313,0 1.440643,0 2.160953,0 z" />
							<path fill="#00000" d="m 346.3,6.7 c -3.1,0.5 -4.9,4.4 -2.7,6.8 1.2,1.4 2.7,2.4 4.1,3.5 -2.4,5.3 -7.7,8.3 -11.9,12.1 -3.7,2.8 -7,6.2 -9.7,9.9 -2.2,-0.8 -0.3,-6.8 -0.6,-9.5 0.1,-3.1 0.7,-6.4 2.9,-8.7 1.3,-1.9 3,-3.5 4.5,-5.2 1.2,-3.4 -3.2,-4.9 -5.8,-4.6 -7.3,-0.5 -14.6,2 -20,6.8 -5,4.6 -10,10.1 -11.5,17 -0.9,3.5 -0.2,7.5 2.8,9.9 2.5,2.8 7.4,2.9 9.8,-0.2 1.7,-2.3 3.2,-4.8 3.8,-7.6 -0.1,-2.6 -4.4,-2.3 -4.3,0.2 1.2,2.4 -0.9,4.7 -2.7,6.2 -1.7,0.9 -4.7,0.7 -4.8,-1.7 -1,-5.8 2.1,-11.3 5.2,-16.1 4,-5.8 9.8,-11.2 17.2,-11.8 1.6,0 8.1,-1.2 6.8,1.4 -2.8,2.8 -5.6,6.1 -6,10.3 -1.6,7.7 0.1,15.7 -2.3,23.2 -1.1,3.9 2,2.6 2.5,0.2 3.3,-7.4 8.9,-13.4 15.1,-18.5 4.2,-3.9 9.5,-7.1 11.9,-12.6 1.3,-3.6 1.2,-9 -2.7,-10.9 -0.6,-0.2 -1.2,-0.3 -1.8,-0.3 z m 66,14.5 c -2,0.8 -1.8,4.9 0.8,4.4 3.4,0.4 2.9,-6.2 -0.8,-4.4 z m 0.6,7.3 c -1.3,0.5 -7.6,0.5 -5.4,2.2 4,-0.3 0.7,4.5 0.6,6.7 -0.4,2.9 -2.4,5.9 -1.2,8.8 2.7,1.7 5.6,-0.8 6.8,-3.2 1.6,-1.4 -0.5,-3 -1.2,-0.9 -0.4,0.8 -2.4,3.5 -2.6,1.8 1.1,-5 2.7,-9.9 3.9,-14.9 l -0.1,-0.5 h -0.9 z m -65.1,0.2 c -6.5,1.6 -10.5,9.5 -8.2,15.7 2.1,3.4 7.4,2.9 10.1,0.4 2,-0.2 3.6,-5.3 1,-3.4 -1.4,2 -4,4.2 -6.5,2.8 -2.2,-1.9 -1.9,-5.7 1.7,-5.3 3.1,-0.9 6.9,-2.1 8.1,-5.5 0.9,-2.7 -1.6,-5.2 -4.3,-4.8 h -1.1 -0.7 z m 13.6,0 c -2.2,0 -8.5,1.8 -2.9,2.3 0.9,1.9 -1,4.9 -1.1,7.2 -0.5,2.9 -1.4,5.7 -1.7,8.7 3.7,0.7 3.8,-2.6 4.4,-5.3 0.9,-3.3 1.6,-7 4.1,-9.5 2.4,1.6 6.8,-0.7 3.7,-3.4 -2.9,-0.5 -4.8,2.4 -6.2,4.3 0,-1.2 2.4,-5 -0.2,-4.3 z m 15.8,0 c -6.4,1.3 -9.6,9.1 -7.7,14.9 1.9,4 7.7,3.9 11,1.7 4.1,-3 6,-8.9 4.4,-13.7 -1.3,-3 -4.8,-3.2 -7.6,-3 z m 17,0 c -2.3,0 -8.8,1.9 -3,2.4 0.4,2.5 -1,5.7 -1.4,8.4 -0.7,2.4 -1.8,7.5 2.1,7.2 3.8,-0.1 6.5,-3.5 8.5,-6.3 2,-3.2 4.5,-7 3.3,-10.9 -3.7,-3 -3.6,2.6 -3.1,5.1 -0.7,3.8 -2.7,7.9 -6.2,9.8 -3.6,0.6 -1,-4.3 -0.8,-6.1 0.6,-3.2 1.6,-6.3 1.9,-9.5 -0.4,0 -0.8,0 -1.1,0 z m 30.6,0 c -6.3,1.2 -9.5,8.9 -7.8,14.7 1.5,4 7.2,4.2 10.5,2.4 4.6,-2.8 6.6,-9.3 4.8,-14.3 -1.4,-2.8 -4.8,-3 -7.5,-2.8 z m -75.4,1.7 c 2.1,1.5 0.2,4.7 -1.6,5.7 -1.1,0.4 -5.5,3.4 -4.6,0.7 0.8,-2.7 2.2,-6.2 5.3,-6.6 l 0.9,0.1 z m 30.8,0 c 2.6,1.5 1.3,5.2 0.8,7.6 -0.8,2.7 -1.9,5.9 -4.7,7.1 -5.1,0.8 -4,-5.8 -2.8,-8.8 1,-2.8 3,-6.8 6.7,-5.8 z m 47.1,-0.1 c 2.9,0.7 2,4.7 1.5,6.8 -0.7,3 -1.8,6.7 -5,8 -4.7,0.8 -4,-5.1 -3,-7.9 0.9,-3 2.7,-7.3 6.5,-6.8 z m -88.1,5.9 c -0.3,1.3 0.9,-0.6 0,0 z m -1.1,2.4 c -0.2,0.5 0.5,-0.1 0,0 z m -1.3,4.5 c -0.3,1.3 0.8,-0.2 0,0 z" />
							<text y="41" x="201" fill="#00000" style="font-style:italic;font-weight:normal;font-size:30px;line-height:125%;font-family:Times;text-anchor:middle" xml:space="preserve">engraved with</text>
						</g>
					</g>
				</g>
			</g>
		</g>
	</svg>
</svg>
